<svg xmlns="http://www.w3.org/2000/svg" xmlns:xlink="http://www.w3.org/1999/xlink" xml:space="preserve" id="svg2" width="222.78" height="323.56" version="1.1" viewBox="0 0 167.09 242.67"><defs id="defs41"><radialGradient xlink:href="#linearGradient2984" id="radialGradient3760" cx="48.23" cy="18.14" r="9.5" fx="48.23" fy="18.14" gradientTransform="matrix(-1.56053 .01828 -.02684 -2.29095 123.98 58.8)" gradientUnits="userSpaceOnUse"/><radialGradient xlink:href="#linearGradient3784" id="radialGradient3792" cx="171.49" cy="511.22" r="81.9" fx="171.49" fy="511.22" gradientTransform="matrix(1.15299 -.67392 .39482 .67549 -233.63 270.4)" gradientUnits="userSpaceOnUse"/><radialGradient xlink:href="#linearGradient3784-4" id="radialGradient3855" cx="171.49" cy="511.22" r="81.9" fx="171.49" fy="511.22" gradientTransform="matrix(1.15299 -.67392 .39482 .67549 -233.63 270.4)" gradientUnits="userSpaceOnUse"/><radialGradient xlink:href="#linearGradient3784-3" id="radialGradient3916" cx="181.69" cy="461.84" r="81.9" fx="181.69" fy="461.84" gradientTransform="matrix(1.15299 -.67392 .39482 .67549 -233.63 270.4)" gradientUnits="userSpaceOnUse"/><linearGradient id="linearGradient2984"><stop id="stop2986" offset="0" style="stop-color:#000;stop-opacity:1"/><stop id="stop2988" offset="1" style="stop-color:#000;stop-opacity:.65648854"/></linearGradient><linearGradient id="linearGradient3784"><stop id="stop3786" offset="0" style="stop-color:#fff;stop-opacity:.53435117"/><stop id="stop3788" offset="1" style="stop-color:#000;stop-opacity:0"/></linearGradient><linearGradient id="linearGradient3784-4"><stop id="stop3786-8" offset="0" style="stop-color:#fff;stop-opacity:.51908398"/><stop id="stop3788-6" offset="1" style="stop-color:#000;stop-opacity:0"/></linearGradient><linearGradient id="linearGradient3784-3"><stop id="stop3786-86" offset="0" style="stop-color:#fff;stop-opacity:.70229006"/><stop id="stop3788-2" offset="1" style="stop-color:#000;stop-opacity:0"/></linearGradient><filter id="filter3834" width="1.28" height="1.32" x="-.14" y="-.16" color-interpolation-filters="sRGB"><feGaussianBlur id="feGaussianBlur3836" stdDeviation="9.51"/></filter><filter id="filter3834-6" width="1.28" height="1.32" x="-.14" y="-.16" color-interpolation-filters="sRGB"><feGaussianBlur id="feGaussianBlur3836-6" stdDeviation="9.51"/></filter><filter id="filter3834-7" width="1.28" height="1.32" x="-.14" y="-.16" color-interpolation-filters="sRGB"><feGaussianBlur id="feGaussianBlur3836-0" stdDeviation="9.51"/></filter></defs><g id="Layer_x0020_1" style="fill-rule:nonzero;clip-rule:nonzero;stroke:#000;stroke-miterlimit:4"><path id="path5" d="M166.84 235.55a6.9 6.9 0 0 1-6.87 6.87H7.1a6.9 6.9 0 0 1-6.86-6.87V7.12A6.9 6.9 0 0 1 7.11.25h152.86a6.9 6.9 0 0 1 6.87 6.87z" style="fill:#fff;stroke-width:.5"/></g><text xml:space="preserve" id="text3788" x="6.71" y="27.55" style="font-size:32px;font-style:normal;font-weight:400;line-height:125%;letter-spacing:0;word-spacing:0;fill:#000;fill-opacity:1;stroke:none;font-family:Bitstream Vera Sans"><tspan id="tspan3790" x="6.71" y="27.55" style="font-style:normal;font-variant:normal;font-weight:400;font-stretch:normal;font-family:Arial;-inkscape-font-specification:Arial">A</tspan></text><g id="g3804" transform="translate(8.87 16.51)scale(.20615)"><g id="layer1-1" transform="translate(-1031.54 -187.38)scale(28.96992)"><path id="cl" d="M50.3 22.7s2.37-1.9 2.37-4.54c0-1.54-1.37-4.1-4.54-4.1a4.36 4.36 0 0 0-4.53 4.1c0 2.64 2.37 4.54 2.37 4.54-2.63-2.06-7.34-.65-7.34 3.45a4.36 4.36 0 0 0 4.32 4.32c3.17 0 4.53-3.45 4.53-3.45s.4 3.93-1.94 6.04h5.18c-2.34-2.1-1.94-6.04-1.94-6.04s1.37 3.45 4.53 3.45a4.36 4.36 0 0 0 4.32-4.32c0-4.1-4.7-5.5-7.34-3.45" style="fill:url(#radialGradient3760);fill-opacity:1"/></g><path id="path3762" d="M117.3 604.27s-8.07-94.95 22.86-122.86c34.76-31.37 140-11.43 140-11.43s-71.54 24.84-100 48.57c-27.21 22.7-62.86 85.72-62.86 85.72" style="fill:url(#radialGradient3792);fill-opacity:1;stroke:none;filter:url(#filter3834)" transform="matrix(1.10913 0 0 1.20717 -37.35 -111.34)"/><path id="path3762-6" d="M117.3 604.27s-8.07-94.95 22.86-122.86c34.76-31.37 140-11.43 140-11.43s-71.54 24.84-100 48.57c-27.21 22.7-62.86 85.72-62.86 85.72" style="fill:url(#radialGradient3855);fill-opacity:1;stroke:none;filter:url(#filter3834-6)" transform="matrix(1.10913 0 0 1.20717 117.25 -332.27)"/><path id="path3762-7" d="M117.3 604.27s-8.07-94.95 22.86-122.86c34.76-31.37 140-11.43 140-11.43s-71.54 24.84-100 48.57c-27.21 22.7-62.86 85.72-62.86 85.72" style="fill:url(#radialGradient3916);fill-opacity:1;stroke:none;filter:url(#filter3834-7)" transform="matrix(1.14204 .7029 -.84188 1.36784 729.37 -305.07)"/><path id="rect3015" d="M28.36 122.03V856.3H695.5V122.03zm334.28 97.62c91.69 0 131.37 74.17 131.37 118.84 0 76.31-68.81 131.35-68.81 131.35 76.42-59.54 212.66-18.89 212.66 100.1 0 59.52-48.65 125.09-125.1 125.09-91.69 0-131.34-100.1-131.34-100.1S369.76 709.05 437.7 770.1H287.57c67.94-61.07 56.32-175.16 56.32-175.16s-39.66 100.1-131.35 100.1c-76.42 0-125.1-65.54-125.1-125.1 0-118.98 136.24-159.63 212.67-100.1 0 0-68.82-55.03-68.82-131.34 0-44.64 39.66-118.84 131.35-118.84" style="fill:#fffeff;fill-opacity:1;fill-rule:nonzero;stroke:none"/></g><g id="layer1-1-4" transform="translate(-54.02 10.02)scale(1.48565)"><path id="cl-9" d="M50.3 22.7s2.37-1.9 2.37-4.54c0-1.54-1.37-4.1-4.54-4.1a4.36 4.36 0 0 0-4.53 4.1c0 2.64 2.37 4.54 2.37 4.54-2.63-2.06-7.34-.65-7.34 3.45a4.36 4.36 0 0 0 4.32 4.32c3.17 0 4.53-3.45 4.53-3.45s.4 3.93-1.94 6.04h5.18c-2.34-2.1-1.94-6.04-1.94-6.04s1.37 3.45 4.53 3.45a4.36 4.36 0 0 0 4.32-4.32c0-4.1-4.7-5.5-7.34-3.45" style="fill:#000"/></g><text xml:space="preserve" id="text3788-8" x="-160.46" y="-214.47" style="font-size:32px;font-style:normal;font-weight:400;line-height:125%;letter-spacing:0;word-spacing:0;fill:#000;fill-opacity:1;stroke:none;font-family:Bitstream Vera Sans" transform="scale(-1)"><tspan id="tspan3790-7" x="-160.46" y="-214.47" style="font-style:normal;font-variant:normal;font-weight:400;font-stretch:normal;font-family:Arial;-inkscape-font-specification:Arial">A</tspan></text><g id="layer1-1-4-1" transform="rotate(180 110.6 116.23)scale(1.48565)"><path id="cl-9-7" d="M50.3 22.7s2.37-1.9 2.37-4.54c0-1.54-1.37-4.1-4.54-4.1a4.36 4.36 0 0 0-4.53 4.1c0 2.64 2.37 4.54 2.37 4.54-2.63-2.06-7.34-.65-7.34 3.45a4.36 4.36 0 0 0 4.32 4.32c3.17 0 4.53-3.45 4.53-3.45s.4 3.93-1.94 6.04h5.18c-2.34-2.1-1.94-6.04-1.94-6.04s1.37 3.45 4.53 3.45a4.36 4.36 0 0 0 4.32-4.32c0-4.1-4.7-5.5-7.34-3.45" style="fill:#000"/></g></svg>