<svg xmlns="http://www.w3.org/2000/svg" xmlns:xlink="http://www.w3.org/1999/xlink" xml:space="preserve" id="svg2" width="222.78" height="323.56" version="1.1" viewBox="0 0 167.09 242.67"><defs id="defs41"><radialGradient xlink:href="#linearGradient3784-4-4" id="radialGradient3100" cx="171.49" cy="511.22" r="81.9" fx="171.49" fy="511.22" gradientTransform="matrix(1.15299 -.67392 .39482 .67549 -233.63 270.4)" gradientUnits="userSpaceOnUse"/><radialGradient xlink:href="#linearGradient2984" id="radialGradient3137" cx="0" cy="-3.23" r="8" fx="0" fy="-3.23" gradientTransform="matrix(-1.12242 .00551 -.00909 -1.85031 -.03 -10.23)" gradientUnits="userSpaceOnUse"/><linearGradient id="linearGradient2984"><stop id="stop2986" offset="0" style="stop-color:#df0000;stop-opacity:1"/><stop id="stop2988" offset="1" style="stop-color:#df0000;stop-opacity:.64122134"/></linearGradient><linearGradient id="linearGradient3784-4-4"><stop id="stop3786-8-8-2" offset="0" style="stop-color:#fff;stop-opacity:.4351145"/><stop id="stop3788-6-1" offset="1" style="stop-color:#000;stop-opacity:0"/></linearGradient><filter id="filter3834-6-0" width="1.28" height="1.32" x="-.14" y="-.16" color-interpolation-filters="sRGB"><feGaussianBlur id="feGaussianBlur3836-6-6" stdDeviation="9.51"/></filter></defs><g id="Layer_x0020_1" style="fill-rule:nonzero;clip-rule:nonzero;stroke:#000;stroke-miterlimit:4"><path id="path5" d="M166.84 235.55a6.9 6.9 0 0 1-6.87 6.87H7.1a6.9 6.9 0 0 1-6.86-6.87V7.12A6.9 6.9 0 0 1 7.11.25h152.86a6.9 6.9 0 0 1 6.87 6.87z" style="fill:#fff;stroke-width:.5"/></g><text xml:space="preserve" id="text3788" x="6.25" y="28.01" style="font-size:32px;font-style:normal;font-weight:400;line-height:125%;letter-spacing:0;word-spacing:0;fill:#df0000;fill-opacity:1;stroke:none;font-family:Bitstream Vera Sans"><tspan id="tspan3790" x="6.25" y="28.01" style="font-style:normal;font-variant:normal;font-weight:400;font-stretch:normal;font-family:Arial;-inkscape-font-specification:Arial;fill:#df0000;fill-opacity:1">A</tspan></text><text xml:space="preserve" id="text3788-4" x="-161.09" y="-213.52" style="font-size:32px;font-style:normal;font-weight:400;line-height:125%;letter-spacing:0;word-spacing:0;fill:#df0000;fill-opacity:1;stroke:none;font-family:Bitstream Vera Sans" transform="scale(-1)"><tspan id="tspan3790-3" x="-161.09" y="-213.52" style="font-style:normal;font-variant:normal;font-weight:400;font-stretch:normal;fill:#df0000;fill-opacity:1;font-family:Arial;-inkscape-font-specification:Arial">A</tspan></text><g id="g3011" transform="translate(19.52 29.8)scale(.17001)"><g id="layer1-2" transform="translate(369.18 512.27)scale(35.0051)"><path id="dl" d="M3.24-4.73A28 28 0 0 1 0-10.5s-1.13 2.91-3.24 5.77C-5.36-1.86-8 0-8 0s2.64 1.86 4.76 4.73A28 28 0 0 1 0 10.5s1.13-2.91 3.24-5.77A24 24 0 0 1 8 0S5.36-1.86 3.24-4.73" style="fill:url(#radialGradient3137);fill-opacity:1"/></g><path id="path3762-6" d="M117.3 604.27s-8.07-94.95 22.86-122.86c34.76-31.37 140-11.43 140-11.43s-71.54 24.84-100 48.57c-27.21 22.7-62.86 85.72-62.86 85.72" style="fill:url(#radialGradient3100);fill-opacity:1;stroke:none;filter:url(#filter3834-6-0)" transform="matrix(-1.46521 .23694 -.24538 -1.5174 660.3 1148.7)"/></g><g id="layer1-2-6" transform="translate(16.97 44.24)scale(1.4769)"><path id="dl-6" d="M3.24-4.73A28 28 0 0 1 0-10.5s-1.13 2.91-3.24 5.77C-5.36-1.86-8 0-8 0s2.64 1.86 4.76 4.73A28 28 0 0 1 0 10.5s1.13-2.91 3.24-5.77A24 24 0 0 1 8 0S5.36-1.86 3.24-4.73" style="fill:#df0000"/></g><g id="layer1-2-6-4" transform="translate(150.62 198.5)scale(1.4769)"><path id="dl-6-9" d="M3.24-4.73A28 28 0 0 1 0-10.5s-1.13 2.91-3.24 5.77C-5.36-1.86-8 0-8 0s2.64 1.86 4.76 4.73A28 28 0 0 1 0 10.5s1.13-2.91 3.24-5.77A24 24 0 0 1 8 0S5.36-1.86 3.24-4.73" style="fill:#df0000"/></g></svg>